<svg width="51" height="50" viewBox="0 0 51 50" fill="none" xmlns="http://www.w3.org/2000/svg">
<path fill-rule="evenodd" clip-rule="evenodd" d="M25.5 1.99335C12.4738 1.99335 1.91095 12.5539 1.91095 25.5824C1.91095 36.0051 8.66993 44.8469 18.0426 47.9664C19.2211 48.1851 19.6539 47.4547 19.6539 46.8316C19.6539 46.2691 19.632 44.4109 19.6219 42.4398C13.0594 43.8668 11.6746 39.6566 11.6746 39.6566C10.6016 36.9301 9.05548 36.2051 9.05548 36.2051C6.91486 34.741 9.21681 34.7715 9.21681 34.7715C11.5852 34.9375 12.8328 37.2023 12.8328 37.2023C14.9367 40.8078 18.3512 39.7656 19.6973 39.1633C19.909 37.6387 20.5203 36.5976 21.1949 36.0086C15.9555 35.4129 10.4473 33.3898 10.4473 24.3512C10.4473 21.7758 11.3692 19.6715 12.8781 18.0191C12.6328 17.4254 11.8254 15.0262 13.1063 11.7769C13.1063 11.7769 15.0867 11.143 19.5945 14.1949C21.4766 13.6719 23.4949 13.409 25.5 13.4C27.5039 13.409 29.5234 13.6711 31.409 14.1941C35.9113 11.1422 37.8895 11.7762 37.8895 11.7762C39.1735 15.025 38.366 17.4246 38.1211 18.0183C39.6336 19.6707 40.5488 21.775 40.5488 24.3504C40.5488 33.4105 35.0305 35.4051 29.7777 35.9894C30.6242 36.7215 31.3781 38.1574 31.3781 40.3578C31.3781 43.5141 31.3508 46.0543 31.3508 46.8312C31.3508 47.459 31.7758 48.1945 32.9711 47.9629C42.3383 44.8402 49.0895 36.0012 49.0895 25.5824C49.0891 12.5547 38.5274 1.99374 25.5 1.99374V1.99335Z" fill="white"/>
<path d="M10.8453 35.8617C10.7934 35.9789 10.609 36.0141 10.441 35.934C10.2692 35.8574 10.1735 35.6977 10.2289 35.5801C10.2797 35.459 10.4645 35.4258 10.6352 35.5066C10.8071 35.5836 10.9047 35.7449 10.8449 35.8621L10.8453 35.8617ZM11.8008 36.9277C11.6887 37.032 11.4688 36.9836 11.3196 36.8184C11.1649 36.6543 11.136 36.4344 11.2504 36.3285C11.3668 36.2246 11.5801 36.2738 11.7348 36.4379C11.8887 36.6043 11.9192 36.8223 11.8012 36.9281L11.8008 36.9277ZM12.7313 38.2859C12.5867 38.3867 12.35 38.2926 12.2039 38.0828C12.0594 37.8727 12.0594 37.6207 12.2078 37.5203C12.3535 37.4195 12.5867 37.5105 12.7352 37.7184C12.8789 37.9312 12.8789 38.1832 12.7313 38.2855V38.2859ZM14.0051 39.5988C13.8762 39.7414 13.6004 39.7031 13.3988 39.509C13.193 39.3187 13.1356 39.048 13.2649 38.9059C13.3961 38.7629 13.6731 38.8027 13.8758 38.9957C14.0817 39.1855 14.1438 39.4566 14.0059 39.5984L14.0051 39.5988ZM15.7629 40.3609C15.7055 40.5457 15.4406 40.6297 15.1731 40.5508C14.9063 40.4699 14.7317 40.2539 14.7864 40.0672C14.841 39.8809 15.1078 39.7937 15.377 39.8777C15.6438 39.9582 15.8184 40.173 15.7629 40.3609ZM17.6938 40.5019C17.7004 40.6965 17.4738 40.8574 17.1938 40.8613C16.9113 40.868 16.6828 40.7101 16.6801 40.5187C16.6801 40.3223 16.902 40.1633 17.184 40.1578C17.4641 40.1527 17.6942 40.309 17.6942 40.5016L17.6938 40.5019ZM19.4899 40.1965C19.5235 40.3859 19.3285 40.5809 19.05 40.6328C18.7766 40.6836 18.5227 40.5656 18.4875 40.3777C18.4539 40.1832 18.6524 39.9883 18.9258 39.9379C19.2047 39.8898 19.4547 40.0043 19.4899 40.1969V40.1965Z" fill="white"/>
</svg>
