<svg width="61" height="60" viewBox="0 0 61 60" fill="none" xmlns="http://www.w3.org/2000/svg">
<path d="M30.5 15.4871C14.6844 15.4871 1.86218 21.9849 1.86218 30C1.86218 38.0152 14.6844 44.513 30.5 44.513C46.3156 44.513 59.1378 38.0152 59.1378 30C59.1378 21.9849 46.3156 15.4871 30.5 15.4871ZM23.0483 32.8275C22.3648 33.4669 21.6059 33.7308 20.7702 34.0027C19.9344 34.275 18.8708 34.2188 17.5775 34.2188H14.6464L13.8341 38.9063H10.4117L13.4656 22.9688H20.0469C22.0269 22.9688 23.4711 23.5383 24.3791 24.5775C25.287 25.6167 25.5598 27.0919 25.198 28.9542C25.0484 29.7216 24.7967 30.435 24.4414 31.0707C24.0732 31.7265 23.6029 32.3195 23.0483 32.8275ZM33.0378 34.2188L34.3883 27.4594C34.542 26.6682 34.4858 26.0803 34.2191 25.793C33.9519 25.5052 33.3837 25.3125 32.5152 25.3125H29.8011L28.0522 34.2188H24.6566L27.7105 18.75H31.1061L30.2942 22.9688H33.3191C35.2227 22.9688 36.5352 23.3508 37.2575 24.0146C37.9798 24.6783 38.1964 25.5877 37.9077 27.0746L36.4869 34.2188H33.0378ZM51.9092 28.9791C51.7602 29.7464 51.508 30.4477 51.1531 31.0828C50.7978 31.7189 50.3337 32.3007 49.7605 32.8275C49.077 33.4669 48.3176 33.7308 47.4823 34.0027C46.647 34.275 45.5825 34.2188 44.2892 34.2188H41.3581L40.5462 38.9063H37.1239L40.1773 22.9688H46.7591C48.7391 22.9688 50.1833 23.5383 51.0908 24.5775C51.9978 25.6167 52.2711 27.1172 51.9092 28.9791ZM45.462 25.3125H43.1178L41.8395 31.875H43.9217C45.3008 31.875 46.3292 31.7391 47.0042 31.2188C47.6802 30.6994 48.1353 29.8932 48.372 28.6777C48.5989 27.51 48.4958 26.5992 48.0627 26.1192C47.6291 25.6392 46.7623 25.3125 45.462 25.3125ZM18.7503 25.3125H16.4056L15.1273 31.875H17.2091C18.5886 31.875 19.6166 31.7391 20.292 31.2188C20.9675 30.6994 21.4231 29.8932 21.6594 28.6777C21.8862 27.51 21.7831 26.5992 21.35 26.1192C20.9169 25.6392 20.0506 25.3125 18.7503 25.3125Z" fill="#6181B6"/>
</svg>
