<svg width="50" height="50" viewBox="0 0 50 50" fill="none" xmlns="http://www.w3.org/2000/svg">
<path d="M1.42812 17.5949C1.42812 17.5949 0.245698 16.739 1.6664 15.5976L4.97421 12.6312C4.97421 12.6312 5.92187 11.6316 6.92304 12.5031L37.4602 35.6781V46.7914C37.4602 46.7914 37.4449 48.5367 35.2113 48.3445L1.42812 17.5949Z" fill="#2489CA"/>
<path d="M9.30037 24.7574L1.4281 31.9305C1.4281 31.9305 0.619507 32.5332 1.4281 33.6121L5.08279 36.943C5.08279 36.943 5.95076 37.8785 7.23435 36.8148L15.5777 30.4719L9.30037 24.7574Z" fill="#1070B3"/>
<path d="M23.1188 24.8168L37.5535 13.768L37.4602 2.71444C37.4602 2.71444 36.8438 0.301943 34.7871 1.55858L15.5778 19.0824L23.1188 24.8168Z" fill="#0877B9"/>
<path d="M35.2109 48.3582C36.0488 49.2188 37.0652 48.9363 37.0652 48.9363L48.3141 43.3809C49.7543 42.3965 49.5527 41.1758 49.5527 41.1758V7.99415C49.5527 6.53516 48.0637 6.03165 48.0637 6.03165L38.3133 1.32032C36.1832 0.000396341 34.7871 1.5586 34.7871 1.5586C34.7871 1.5586 36.5813 0.262896 37.4602 2.71485V46.5887C37.4602 46.8906 37.3961 47.1863 37.268 47.4535C37.0117 47.9738 36.4531 48.4574 35.118 48.2547L35.2109 48.3582Z" fill="#3C99D4"/>
</svg>
