<svg width="50" height="50" viewBox="0 0 50 50" fill="none" xmlns="http://www.w3.org/2000/svg">
<path d="M5.85342 10.8251C5.76084 8.163 7.83467 5.70831 10.6382 5.70831H39.3647C42.1683 5.70831 44.2421 8.163 44.1495 10.8251C44.0604 13.3821 44.1761 16.6946 45.0097 19.3954C45.846 22.1048 47.2562 23.8169 49.5659 24.0372V26.5321C47.2562 26.7525 45.846 28.4646 45.0097 31.1739C44.1761 33.8747 44.0604 37.1872 44.1495 39.7443C44.2421 42.4064 42.1683 44.8607 39.3647 44.8607H10.6382C7.83467 44.8607 5.76084 42.406 5.85342 39.7443C5.94248 37.1872 5.82686 33.8747 4.99287 31.1739C4.15693 28.465 2.74287 26.7525 0.433105 26.5321V24.0372C2.74287 23.8173 4.15693 22.1048 4.99287 19.3954C5.82686 16.6946 5.94209 13.3821 5.85342 10.8251V10.8251Z" fill="url(#paint0_linear_96_16)"/>
<g filter="url(#filter0_d_96_16)">
<path d="M26.2147 35.8344C30.7534 35.8344 33.4883 33.6121 33.4883 29.9467C33.4883 27.176 31.5369 25.1701 28.6392 24.8526V24.7371C30.7681 24.3908 32.4387 22.4138 32.4387 20.206C32.4387 17.0601 29.9551 15.0108 26.1704 15.0108H17.6548V35.8344H26.2147ZM20.9664 17.6517H25.3721C27.7671 17.6517 29.1271 18.7195 29.1271 20.6532C29.1271 22.7169 27.5453 23.8713 24.6772 23.8713H20.9664V17.6517ZM20.9664 33.1935V26.3389H25.3424C28.4766 26.3389 30.1028 27.4933 30.1028 29.7446C30.1028 31.9957 28.521 33.1935 25.5346 33.1935H20.9664Z" fill="url(#paint1_linear_96_16)"/>
<path d="M26.2147 35.8344C30.7534 35.8344 33.4883 33.6121 33.4883 29.9467C33.4883 27.176 31.5369 25.1701 28.6392 24.8526V24.7371C30.7681 24.3908 32.4387 22.4138 32.4387 20.206C32.4387 17.0601 29.9551 15.0108 26.1704 15.0108H17.6548V35.8344H26.2147ZM20.9664 17.6517H25.3721C27.7671 17.6517 29.1271 18.7195 29.1271 20.6532C29.1271 22.7169 27.5453 23.8713 24.6772 23.8713H20.9664V17.6517ZM20.9664 33.1935V26.3389H25.3424C28.4766 26.3389 30.1028 27.4933 30.1028 29.7446C30.1028 31.9957 28.521 33.1935 25.5346 33.1935H20.9664Z" stroke="white" stroke-width="0.24566"/>
</g>
<defs>
<filter id="filter0_d_96_16" x="13.6014" y="11.9401" width="23.9403" height="28.9303" filterUnits="userSpaceOnUse" color-interpolation-filters="sRGB">
<feFlood flood-opacity="0" result="BackgroundImageFix"/>
<feColorMatrix in="SourceAlpha" type="matrix" values="0 0 0 0 0 0 0 0 0 0 0 0 0 0 0 0 0 0 127 0" result="hardAlpha"/>
<feOffset dy="0.98264"/>
<feGaussianBlur stdDeviation="1.96528"/>
<feColorMatrix type="matrix" values="0 0 0 0 0 0 0 0 0 0 0 0 0 0 0 0 0 0 0.15 0"/>
<feBlend mode="normal" in2="BackgroundImageFix" result="effect1_dropShadow_96_16"/>
<feBlend mode="normal" in="SourceGraphic" in2="effect1_dropShadow_96_16" result="shape"/>
</filter>
<linearGradient id="paint0_linear_96_16" x1="7.73411" y1="6.7445" x2="50.6671" y2="40.8252" gradientUnits="userSpaceOnUse">
<stop stop-color="#9013FE"/>
<stop offset="1" stop-color="#6610F2"/>
</linearGradient>
<linearGradient id="paint1_linear_96_16" x1="19.1529" y1="16.3812" x2="28.749" y2="32.611" gradientUnits="userSpaceOnUse">
<stop stop-color="white"/>
<stop offset="1" stop-color="#F1E5FC"/>
</linearGradient>
</defs>
</svg>
