<svg width="51" height="50" viewBox="0 0 51 50" fill="none" xmlns="http://www.w3.org/2000/svg">
<path d="M46.1828 38.2058C43.502 38.1328 41.4547 38.3824 39.7043 39.1203C39.207 39.3301 38.4133 39.3359 38.332 39.959C38.6055 40.2453 38.648 40.6734 38.8652 41.0258C39.2832 41.7015 39.9887 42.6086 40.6184 43.0836C41.3066 43.6031 42.0156 44.1582 42.7531 44.6078C44.0648 45.4074 45.5293 45.8644 46.7922 46.6656C47.5367 47.1383 48.2762 47.7332 49.0023 48.266C49.3617 48.5297 49.6027 48.9394 50.0695 49.1047V49.0289C49.8242 48.7164 49.7609 48.2875 49.5359 47.9613L48.5449 46.9703C47.5762 45.6844 46.3461 44.5547 45.0387 43.6168C43.9961 42.8683 41.6629 41.8574 41.2281 40.6445L41.152 40.5683C41.891 40.4848 42.7562 40.2176 43.4387 40.0344C44.5848 39.7273 45.609 39.8066 46.7922 39.5012L48.3926 39.0437V38.739C47.7945 38.1254 47.368 37.3129 46.716 36.7574C45.009 35.3043 43.1465 33.8523 41.2285 32.6414C40.1645 31.9703 38.85 31.534 37.7223 30.9648C37.343 30.773 36.6766 30.6734 36.4262 30.3547C35.8336 29.6 35.5113 28.643 35.0547 27.7637C34.098 25.9211 33.1586 23.909 32.3109 21.9703C31.7328 20.6484 31.3551 19.3453 30.634 18.1594C27.173 12.4691 23.448 9.03514 17.6773 5.65936C16.4492 4.9414 14.9707 4.65819 13.4082 4.2871C12.5703 4.23671 11.7316 4.18554 10.8934 4.13436C10.3812 3.92108 9.84922 3.29491 9.36914 2.991C7.45742 1.78319 2.55351 -0.843761 1.13789 2.61015C0.243749 4.79022 2.47422 6.91679 3.27148 8.02186C3.83164 8.79608 4.54844 9.66522 4.94844 10.5367C5.21172 11.1098 5.25703 11.6844 5.48242 12.2902C6.03594 13.7832 6.51836 15.4074 7.23516 16.7867C7.59726 17.4851 7.99648 18.2203 8.45469 18.8445C8.73516 19.2277 9.2168 19.3965 9.29258 19.9879C8.82226 20.6465 8.79531 21.6691 8.53086 22.5035C7.33945 26.2594 7.78906 30.9281 9.52187 33.7078C10.0531 34.5617 11.3059 36.3918 13.0277 35.6894C14.534 35.0762 14.1977 33.1746 14.6285 31.4973C14.7258 31.1172 14.666 30.8375 14.857 30.5828V30.659L16.2293 33.4027C17.2449 35.0383 19.0465 36.7473 20.5738 37.9004C21.3656 38.4984 21.9891 39.532 23.0129 39.882V39.8055H22.9367C22.7383 39.4965 22.4277 39.3683 22.1746 39.1199C21.5781 38.5351 20.9148 37.8082 20.4219 37.1383C19.0328 35.2527 17.8055 33.189 16.6871 31.041C16.1527 30.0148 15.6883 28.8836 15.2383 27.8394C15.0648 27.4371 15.0672 26.8281 14.7055 26.6199C14.2121 27.3848 13.4859 28.0035 13.1047 28.9066C12.4949 30.3504 12.4164 32.1113 12.1902 33.9371C12.0566 33.9848 12.116 33.9519 12.0375 34.0129C10.9758 33.757 10.6031 32.6644 10.2082 31.7266C9.21055 29.3555 9.025 25.5383 9.90312 22.809C10.1305 22.1023 11.157 19.8789 10.7414 19.2262C10.543 18.5754 9.88828 18.1988 9.52226 17.7016C9.06875 17.0867 8.61641 16.2773 8.30195 15.5672C7.48555 13.7191 7.1043 11.6437 6.24453 9.77499C5.8332 8.88163 5.13828 7.97733 4.56758 7.18358C3.93594 6.3035 3.22812 5.65546 2.73828 4.59179C2.56406 4.21366 2.32773 3.60819 2.58555 3.21952C2.66758 2.95741 2.78398 2.84804 3.04297 2.76249C3.48516 2.42147 4.71641 2.87577 5.17656 3.06679C6.39883 3.5746 7.41914 4.05819 8.45469 4.74413C8.95117 5.07382 9.4543 5.71093 10.0551 5.88749H10.741C11.8141 6.13397 13.016 5.96366 14.0187 6.26835C15.7906 6.80663 17.3785 7.64452 18.8203 8.55507C23.2133 11.3293 26.8055 15.2777 29.2625 19.9883C29.6578 20.7469 29.8289 21.4703 30.177 22.275C30.8793 23.8973 31.7641 25.5664 32.4629 27.1531C33.1605 28.7359 33.8402 30.3332 34.8262 31.6504C35.3445 32.3426 37.3461 32.7141 38.2562 33.0988C38.8937 33.368 39.9387 33.6492 40.543 34.0129C41.6965 34.709 42.8145 35.5375 43.8969 36.3C44.4371 36.6808 46.1 37.5172 46.1828 38.2058ZM12.1129 9.16639C11.5539 9.15585 11.1586 9.22733 10.7406 9.31835V9.39452H10.8168C11.0836 9.94218 11.5543 10.2953 11.8836 10.7668C12.1375 11.3008 12.3918 11.834 12.6461 12.3672L12.7219 12.2918C13.1941 11.9586 13.4102 11.4269 13.4074 10.6144C13.2184 10.4156 13.1906 10.1664 13.0266 9.92889C12.8094 9.6121 12.3879 9.43202 12.1129 9.16639Z" fill="#00618A"/>
</svg>
