<svg width="40" height="58" viewBox="0 0 40 58" fill="none" xmlns="http://www.w3.org/2000/svg">
<g clip-path="url(#clip0_47_35)">
<path d="M20 29C20 26.4362 21.0184 23.9775 22.8313 22.1646C24.6442 20.3518 27.1029 19.3333 29.6667 19.3333C32.2304 19.3333 34.6892 20.3518 36.502 22.1646C38.3149 23.9775 39.3333 26.4362 39.3333 29C39.3333 31.5637 38.3149 34.0225 36.502 35.8353C34.6892 37.6482 32.2304 38.6666 29.6667 38.6666C27.1029 38.6666 24.6442 37.6482 22.8313 35.8353C21.0184 34.0225 20 31.5637 20 29Z" fill="#1ABCFE"/>
<path d="M0.666626 48.3334C0.666626 45.7696 1.68508 43.3108 3.49793 41.498C5.31078 39.6851 7.76953 38.6667 10.3333 38.6667H20V48.3334C20 50.8971 18.9815 53.3559 17.1687 55.1687C15.3558 56.9816 12.8971 58 10.3333 58C7.76953 58 5.31078 56.9816 3.49793 55.1687C1.68508 53.3559 0.666626 50.8971 0.666626 48.3334Z" fill="#0ACF83"/>
<path d="M20 0V19.3333H29.6667C32.2304 19.3333 34.6892 18.3149 36.502 16.502C38.3149 14.6892 39.3333 12.2304 39.3333 9.66667C39.3333 7.10291 38.3149 4.64415 36.502 2.8313C34.6892 1.01845 32.2304 0 29.6667 0L20 0Z" fill="#FF7262"/>
<path d="M0.666626 9.66667C0.666626 12.2304 1.68508 14.6892 3.49793 16.502C5.31078 18.3149 7.76953 19.3333 10.3333 19.3333H20V0H10.3333C7.76953 0 5.31078 1.01845 3.49793 2.8313C1.68508 4.64415 0.666626 7.10291 0.666626 9.66667Z" fill="#F24E1E"/>
<path d="M0.666626 29C0.666626 31.5637 1.68508 34.0225 3.49793 35.8353C5.31078 37.6482 7.76953 38.6666 10.3333 38.6666H20V19.3333H10.3333C7.76953 19.3333 5.31078 20.3518 3.49793 22.1646C1.68508 23.9775 0.666626 26.4362 0.666626 29Z" fill="#A259FF"/>
</g>
<defs>
<clipPath id="clip0_47_35">
<rect width="38.6667" height="58" fill="white" transform="translate(0.666626)"/>
</clipPath>
</defs>
</svg>
