<svg width="50" height="50" viewBox="0 0 50 50" fill="none" xmlns="http://www.w3.org/2000/svg">
<path d="M14.7656 3.51562C13.4375 3.51562 12.1875 4.25781 11.5234 5.39063L1.25 23.125C0.585938 24.2969 0.585938 25.7031 1.25 26.875L11.4844 44.6094C12.1875 45.7422 13.3984 46.4844 14.7266 46.4844H35.1953C36.5234 46.4844 37.7734 45.7422 38.4375 44.6094L48.6719 26.875C49.3359 25.7031 49.3359 24.2969 48.6719 23.125L38.4766 5.39063C37.8125 4.25781 36.5625 3.51562 35.2344 3.51562H14.7656ZM14.9609 13.9062H18.5937C18.75 13.9062 18.9062 13.9844 18.9844 14.1406L24.9609 24.8047C25 24.8438 25 24.9219 25 24.9609C25 24.8828 25.0391 24.8438 25.0391 24.8047L31.0156 14.1406C31.0937 13.9844 31.25 13.9062 31.4062 13.9062H34.9219C35.1953 13.9453 35.3906 14.1797 35.3516 14.4531C35.3516 14.4922 35.3516 14.5313 35.3125 14.6094L29.5312 25L35.3906 35.4297C35.5078 35.6641 35.3906 35.9766 35.1562 36.0547C35.1172 36.0938 35.0391 36.0938 35 36.0938H31.4453C31.2891 36.0938 31.1328 36.0156 31.0547 35.8594L25.0391 25.1953C25 25.1562 25 25.0781 25 25.0391C25 25.1172 24.9609 25.1562 24.9609 25.1953L18.9453 35.8594C18.8672 36.0156 18.7109 36.0938 18.5547 36.0938H15.0391C14.7656 36.0547 14.5703 35.8203 14.6094 35.5859C14.6094 35.5469 14.6484 35.4687 14.6484 35.4297L20.5078 25L14.6484 14.5703C14.5313 14.3359 14.6484 14.0625 14.8828 13.9453C14.8828 13.9063 14.9219 13.9062 14.9609 13.9062V13.9062Z" fill="#3498DB"/>
</svg>
