<svg width="50" height="34" viewBox="0 0 50 34" fill="none" xmlns="http://www.w3.org/2000/svg">
<mask id="mask0_95_16" style="mask-type:luminance" maskUnits="userSpaceOnUse" x="0" y="0" width="50" height="33">
<path d="M0 0H50V32.7273H0V0Z" fill="white"/>
</mask>
<g mask="url(#mask0_95_16)">
<path fill-rule="evenodd" clip-rule="evenodd" d="M25 0C18.3333 0 14.1667 3.63636 12.5 10.9091C15 7.27273 17.9167 5.90909 21.25 6.81818C23.1519 7.33636 24.5111 8.84242 26.0157 10.5081C28.4667 13.2222 31.3037 16.3636 37.5 16.3636C44.1667 16.3636 48.3333 12.7273 50 5.45455C47.5 9.09091 44.5833 10.4545 41.25 9.54545C39.3481 9.02727 37.9889 7.52121 36.4843 5.85556C34.0333 3.14141 31.1963 0 25 0ZM12.5 16.3636C5.83333 16.3636 1.66667 20 0 27.2727C2.5 23.6364 5.41667 22.2727 8.75 23.1818C10.6519 23.701 12.0111 25.2061 13.5157 26.8717C15.9667 29.5859 18.8037 32.7273 25 32.7273C31.6667 32.7273 35.8333 29.0909 37.5 21.8182C35 25.4545 32.0833 26.8182 28.75 25.9091C26.8481 25.3909 25.4889 23.8848 23.9843 22.2192C21.5333 19.505 18.6963 16.3636 12.5 16.3636Z" fill="#38BDF8"/>
</g>
</svg>
