<svg width="50" height="50" viewBox="0 0 50 50" fill="none" xmlns="http://www.w3.org/2000/svg">
<path d="M7.34913 44.5791L3.42178 0.527954H46.578L42.6468 44.5725L24.9737 49.4721L7.34913 44.5791Z" fill="#1572B6"/>
<path d="M25.0004 45.7274L39.2812 41.768L42.641 4.12976H25.0004V45.7274Z" fill="#33A9DC"/>
<path d="M25.0004 20.0893H32.1496L32.6433 14.5568H25.0004V9.15411H38.548L38.4183 10.6037L37.0902 25.492H25.0004V20.0893Z" fill="white"/>
<path d="M25.0324 34.1206L25.0086 34.1276L18.9918 32.503L18.607 28.194H13.1844L13.941 36.6772L25.0078 39.7487L25.0324 39.7417V34.1206Z" fill="#EBEBEB"/>
<path d="M31.6902 25.2637L31.0395 32.4988L25.0137 34.1254V39.7465L36.0895 36.6769L36.1707 35.7641L37.1105 25.2637H31.6902Z" fill="white"/>
<path d="M25.0187 9.15411V14.5568H11.9687L11.8605 13.3428L11.6144 10.6037L11.4851 9.15411H25.0187ZM25.0003 20.0901V25.4928H19.0593L18.9511 24.2787L18.7046 21.5397L18.5757 20.0901H25.0003Z" fill="#EBEBEB"/>
</svg>
