<svg width="50" height="50" viewBox="0 0 50 50" fill="none" xmlns="http://www.w3.org/2000/svg">
<path d="M0 50V0H50V50H0Z" fill="#FFD600"/>
<path d="M32.6917 37.4264C33.6528 38.9875 34.6972 40.4833 36.9097 40.4833C38.7681 40.4833 39.7431 39.5597 39.7431 38.282C39.7431 36.7528 38.7347 36.2097 36.6903 35.3195L35.5695 34.8417C32.3347 33.4695 30.1834 31.75 30.1834 28.1181C30.1834 24.7708 32.7459 22.2236 36.75 22.2236C39.6014 22.2236 41.65 23.2111 43.1278 25.7972L39.6361 28.0292C38.8681 26.657 38.0375 26.1167 36.75 26.1167C35.4361 26.1167 34.6042 26.9458 34.6042 28.0292C34.6042 29.3681 35.4375 29.9097 37.3611 30.7389L38.482 31.2167C42.2945 32.8403 44.4445 34.4986 44.4445 38.2264C44.4445 42.2431 41.2722 44.4445 37.0139 44.4445C32.8486 44.4445 30.4834 42.3542 29.1667 39.7667L32.6917 37.4264ZM16.6 37.5403C17.3028 38.7986 18.3709 39.7667 19.907 39.7667C21.3764 39.7667 22.2222 39.1861 22.2222 36.9292V22.2222H26.8514V37.6403C26.8514 42.3167 24.1389 44.4445 20.1778 44.4445C16.5986 44.4445 14.0153 42.0195 12.9625 39.7667L16.6 37.5403Z" fill="#000001"/>
</svg>
