<svg width="51" height="50" viewBox="0 0 51 50" fill="none" xmlns="http://www.w3.org/2000/svg">
<path d="M7.93633 44.4828L4.02813 0.648804H46.9719L43.0594 44.4761L25.4738 49.3511L7.93633 44.4828Z" fill="#E44D26"/>
<path d="M25.5 45.625L39.7102 41.6851L43.0535 4.23279H25.5V45.625Z" fill="#F16529"/>
<path d="M25.5 20.4903H18.3859L17.8945 14.9848H25.5V9.60901H12.0191L12.148 11.0512L13.4691 25.8664H25.5V20.4903ZM25.5 34.4524L25.4762 34.459L19.4891 32.8418L19.1066 28.5547H13.7094L14.4625 36.9957L25.4754 40.0528L25.5 40.0461V34.4524Z" fill="#EBEBEB"/>
<path d="M25.4813 20.4903V25.8664H32.1012L31.4773 32.8387L25.4813 34.4571V40.0504L36.5027 36.9957L36.5836 36.0875L37.8469 21.934L37.9777 20.4903H36.5293H25.4813ZM25.4813 9.60901V14.9848H38.4672L38.575 13.777L38.8203 11.0512L38.9488 9.60901H25.4813Z" fill="white"/>
</svg>
